# Blender3D v249 OBJ File: 
# www.blender3d.org
v 0.0 1.0 0.0
v -1.0 -1.0 1.0
v 1.0 -1.0 1.0
v 0.0 1.0 0.0
v 1.0 -1.0 -1.0
v -1.0 -1.0 -1.0
v 0.0 1.0 0.0
v 1.0 -1.0 1.0
v 1.0 -1.0 -1.0
v 0.0 1.0 0.0
v -1.0 -1.0 -1.0
v -1.0 -1.0 1.0
vt 1.0 0.0 0.0
vt 0.0 1.0 0.0
vt 0.0 0.0 1.0
vt 1.0 0.0 0.0
vt 0.0 1.0 0.0
vt 0.0 0.0 1.0
vt 1.0 0.0 0.0
vt 0.0 0.0 1.0
vt 0.0 1.0 0.0
vt 1.0 0.0 0.0
vt 0.0 0.0 1.0
vt 0.0 1.0 0.0
vn 0.0 0.447214 0.894427
vn 0.0 0.447214 0.894427
vn 0.0 0.447214 0.894427
vn 0.0 0.4472141 -0.894427
vn 0.0 0.4472141 -0.894427
vn 0.0 0.4472141 -0.894427
vn 0.894427 0.4472141 0.0
vn 0.894427 0.4472141 0.0
vn 0.894427 0.4472141 0.0
vn -0.894427 0.4472141 0.0
vn -0.894427 0.4472141 0.0
vn -0.894427 0.4472141 0.0
usemtl (null)
s off
f 1/1/1 2/2/2 3/3/3
f 4/4/4 5/5/5 6/6/6
f 7/7/7 8/8/8 9/9/9
f 10/10/10 11/11/11 12/12/12